<svg width="16" height="16" viewBox="0 0 16 16" fill="none" xmlns="http://www.w3.org/2000/svg">
<path d="M7.44893 1.33043C7.65718 0.846848 8.34282 0.846849 8.55107 1.33043L10.2925 5.37423C10.3794 5.57594 10.5695 5.71407 10.7882 5.73435L15.1722 6.14096C15.6965 6.18958 15.9083 6.84167 15.5128 7.18916L12.205 10.095C12.04 10.2399 11.9674 10.4634 12.0157 10.6777L12.9837 14.9728C13.0995 15.4864 12.5448 15.8894 12.0921 15.6206L8.30634 13.3727C8.1175 13.2606 7.8825 13.2606 7.69366 13.3727L3.90792 15.6206C3.4552 15.8894 2.9005 15.4864 3.01626 14.9728L3.98429 10.6777C4.03258 10.4634 3.95996 10.2399 3.79497 10.095L0.487215 7.18916C0.091658 6.84167 0.303535 6.18958 0.827798 6.14096L5.21182 5.73435C5.4305 5.71407 5.62062 5.57594 5.70748 5.37423L7.44893 1.33043Z" fill="#F4CC49"/>
</svg>
